<svg width="18" height="18" viewBox="0 0 18 18" fill="none" xmlns="http://www.w3.org/2000/svg">
<path d="M9.27051 15.0864C8.52344 15.0864 8.08398 14.6118 8.08398 13.8032V9.84814H3.04785V13.8032C3.04785 14.6118 2.6084 15.0864 1.86133 15.0864C1.10547 15.0864 0.674805 14.6118 0.674805 13.8032V4.19678C0.674805 3.38818 1.10547 2.91357 1.86133 2.91357C2.6084 2.91357 3.04785 3.38818 3.04785 4.19678V7.89697H8.08398V4.19678C8.08398 3.38818 8.52344 2.91357 9.27051 2.91357C10.0264 2.91357 10.4658 3.38818 10.4658 4.19678V13.8032C10.4658 14.6118 10.0264 15.0864 9.27051 15.0864Z" fill="black"/>
<path d="M16.165 15.0513C15.7168 15.0513 15.3389 14.814 14.9434 14.269L11.7266 9.77783L10.4609 11.0786V13.8032C10.4609 14.6206 10.0391 15.0864 9.29199 15.0864C8.53613 15.0864 8.08789 14.6118 8.08789 13.8032V4.19678C8.08789 3.38818 8.51855 2.91357 9.27441 2.91357C10.0215 2.91357 10.4609 3.38818 10.4609 4.19678V8.25732H10.5928L15.0049 3.51123C15.3652 3.10693 15.6553 2.94873 15.998 2.94873C16.5957 2.94873 17.0527 3.40576 17.0527 3.98584C17.0527 4.29346 16.9385 4.51318 16.5605 4.91748L13.4932 8.24854L16.7891 12.7573C17.2197 13.3374 17.3252 13.5835 17.3252 13.9175C17.3252 14.5854 16.8506 15.0513 16.165 15.0513Z" fill="black"/>
</svg>
